<?xml version="1.0" encoding="UTF-8" standalone="no"?>
<!-- Created with Inkscape (http://www.inkscape.org/) -->

<svg
   xmlns:dc="http://purl.org/dc/elements/1.1/"
   xmlns:cc="http://creativecommons.org/ns#"
   xmlns:rdf="http://www.w3.org/1999/02/22-rdf-syntax-ns#"
   xmlns:svg="http://www.w3.org/2000/svg"
   xmlns="http://www.w3.org/2000/svg"
   xmlns:sodipodi="http://sodipodi.sourceforge.net/DTD/sodipodi-0.dtd"
   xmlns:inkscape="http://www.inkscape.org/namespaces/inkscape"
   width="183.84763mm"
   height="183.84763mm"
   viewBox="0 0 651.4286 651.42859"
   id="svg2"
   version="1.1"
   inkscape:version="0.91 r13725"
   sodipodi:docname="icon.svg">
  <defs
     id="defs4" />
  <sodipodi:namedview
     id="base"
     pagecolor="#ffffff"
     bordercolor="#666666"
     borderopacity="1.0"
     inkscape:pageopacity="0.0"
     inkscape:pageshadow="2"
     inkscape:zoom="0.49497475"
     inkscape:cx="273.5714"
     inkscape:cy="266.94701"
     inkscape:document-units="px"
     inkscape:current-layer="flowRoot3336"
     showgrid="false"
     fit-margin-top="0"
     fit-margin-left="0"
     fit-margin-right="0"
     fit-margin-bottom="0"
     inkscape:window-width="1366"
     inkscape:window-height="704"
     inkscape:window-x="0"
     inkscape:window-y="27"
     inkscape:window-maximized="1" />
  <metadata
     id="metadata7">
    <rdf:RDF>
      <cc:Work
         rdf:about="">
        <dc:format>image/svg+xml</dc:format>
        <dc:type
           rdf:resource="http://purl.org/dc/dcmitype/StillImage" />
        <dc:title></dc:title>
      </cc:Work>
    </rdf:RDF>
  </metadata>
  <g
     inkscape:label="Ebene 1"
     inkscape:groupmode="layer"
     id="layer1"
     transform="translate(-51.428601,-138.07647)">
    <flowRoot
       xml:space="preserve"
       id="flowRoot3344"
       style="font-style:normal;font-weight:normal;font-size:40px;line-height:125%;font-family:Sans;letter-spacing:0px;word-spacing:0px;fill:#000000;fill-opacity:1;stroke:none;stroke-width:1px;stroke-linecap:butt;stroke-linejoin:miter;stroke-opacity:1"><flowRegion
         id="flowRegion3346"><rect
           id="rect3348"
           width="202.85715"
           height="111.42857"
           x="8.5714283"
           y="183.79077" /></flowRegion><flowPara
         id="flowPara3350"></flowPara></flowRoot>    <g
       id="layer1-0"
       inkscape:label="Ebene 1"
       transform="translate(2.7712136e-5,8.5713994)">
      <rect
         inkscape:export-ydpi="90"
         inkscape:export-xdpi="90"
         rx="128.57143"
         ry="128.57143"
         y="129.50507"
         x="51.428574"
         height="651.42859"
         width="651.42859"
         id="rect3362"
         style="color:#000000;display:inline;overflow:visible;visibility:visible;fill:#b3b3b3;fill-opacity:1;fill-rule:nonzero;stroke:none;stroke-width:50.59133911;stroke-miterlimit:4;stroke-dasharray:none;stroke-opacity:1;marker:none;enable-background:accumulate" />
      <g
         transform="matrix(1.2437713,0,0,1.2437713,-75.857917,-93.042267)"
         style="font-style:normal;font-weight:normal;font-size:115.68191528px;line-height:125%;font-family:Sans;letter-spacing:0px;word-spacing:0px;fill:#ffffff;fill-opacity:1;stroke:#000000;stroke-width:2.89204788px;stroke-linecap:butt;stroke-linejoin:miter;stroke-opacity:1"
         id="flowRoot3336">
        <path
           d="m 175.44172,501.41007 q 0,-4.62728 7.40364,-18.97183 7.86637,-14.34456 7.86637,-21.28548 0,-8.79182 2.77637,-11.56819 4.62728,-4.62727 16.19547,-49.04913 11.56819,-44.42185 13.88183,-68.94642 2.31364,-18.97183 6.47818,-24.06184 1.38819,-1.85091 3.2391,-2.31364 1.85091,-0.92545 6.01546,-0.46272 4.16455,0 9.25455,0.92545 5.55273,0.46273 17.58365,1.38818 12.03092,0.92546 25.91275,1.38819 24.98729,0.46272 31.46548,2.31363 6.94092,1.38819 14.34456,8.79183 l 10.18001,10.64274 -8.3291,6.94091 q -5.09,4.16455 -12.03092,5.09001 -6.94091,0.92545 -24.06184,0 -18.97183,-1.38819 -24.52456,0 -5.55274,0.92545 -11.5682,7.40364 -6.01546,6.47819 -11.56819,22.21093 -5.55273,15.73274 -12.95637,43.03367 -7.40364,27.30093 -13.88183,45.81004 -23.59911,66.63278 -21.28547,70.79733 2.31363,3.23909 39.33185,3.23909 31.46548,0 43.4964,4.16455 12.03092,4.16455 13.4191,15.73274 0.92546,8.3291 -4.62728,12.03092 -5.09,3.70182 -15.73274,3.70182 -10.64273,0.46273 -23.13638,-0.46272 -12.03092,-0.46273 -29.15184,-0.46273 -16.6582,0 -30.54003,2.77636 -18.97183,3.2391 -28.68911,0.46273 -9.71728,-2.77636 -15.73274,-13.4191 -3.2391,-6.01546 -3.2391,-9.25455 0,-3.2391 3.2391,-8.3291 18.97183,-31.46548 18.97183,-40.25731 z"
           style="font-style:normal;font-variant:normal;font-weight:500;font-stretch:normal;font-size:462.72766113px;font-family:ELExRegular;-inkscape-font-specification:'ELExRegular Medium';fill:#ffffff;stroke:#000000;stroke-width:2.89204788px;stroke-opacity:1"
           id="path3554" />
        <path
           d="m 409.7699,327.42447 q 2.31364,-2.77637 5.09001,-3.70182 3.23909,-0.92546 10.18001,-0.46273 7.40364,0.46273 16.19546,1.38818 9.25456,0.92546 27.30094,2.31364 18.5091,0.92546 39.79457,0.92546 26.37548,0 37.01822,1.38818 10.64273,1.38818 17.12092,5.55273 9.25455,6.01546 9.71728,17.58365 0.92546,11.10547 -7.40364,22.67366 -7.86637,10.64274 -11.10546,31.00275 -3.2391,20.82275 -11.5682,53.21368 -8.32909,31.92821 -11.56819,35.63003 -2.77636,3.70183 -6.01546,18.97184 -2.77636,15.27001 -3.23909,27.76366 0,12.95637 -10.64274,21.28547 -7.40364,5.09 -18.5091,6.47819 -10.64274,1.38818 -49.97459,1.85091 -37.01821,0 -50.43732,-0.92546 -13.4191,-0.46272 -19.43456,-2.77636 -6.01546,-2.31364 -10.64273,-8.79183 -4.16455,-6.94091 -4.16455,-9.25455 0,-2.77637 5.55273,-7.86637 5.55273,-5.55273 10.18001,-6.01546 5.09,-0.46273 21.7482,2.31364 34.24184,6.01546 58.30368,2.31363 24.06184,-4.16454 24.52457,-15.73274 0,-5.55273 7.40364,-16.19546 7.86637,-11.10547 7.86637,-15.73274 0,-6.47819 5.55273,-19.89729 5.55274,-13.41911 12.95638,-48.12368 7.86637,-34.70458 7.86637,-46.73549 l 0,-12.49365 -47.66095,1.85091 q -31.00275,0.92545 -40.25731,0.46273 -9.25455,-0.92546 -14.34455,-5.09001 -7.40365,-6.94091 -9.71729,-18.04638 -2.31363,-11.10546 2.31364,-17.12092 z"
           style="font-style:normal;font-variant:normal;font-weight:500;font-stretch:normal;font-size:462.72766113px;font-family:ELExRegular;-inkscape-font-specification:'ELExRegular Medium';fill:#ffffff;stroke:#000000;stroke-width:2.89204788px;stroke-opacity:1"
           id="path3556" />
      </g>
      <flowRoot
         style="font-style:normal;font-weight:normal;font-size:40px;line-height:125%;font-family:Sans;letter-spacing:0px;word-spacing:0px;fill:#000000;fill-opacity:1;stroke:none;stroke-width:1px;stroke-linecap:butt;stroke-linejoin:miter;stroke-opacity:1"
         id="flowRoot3344-5"
         xml:space="preserve"><flowRegion
           id="flowRegion3346-2"><rect
             y="206.64792"
             x="-20"
             height="85.714287"
             width="177.14285"
             id="rect3348-0" /></flowRegion><flowPara
           id="flowPara3350-2" /></flowRoot>    </g>
  </g>
</svg>
